<svg width="64" height="64" viewBox="0 0 64 64" fill="none" xmlns="http://www.w3.org/2000/svg">
<mask id="mask0_533_1717" style="mask-type:alpha" maskUnits="userSpaceOnUse" x="0" y="0" width="64" height="64">
<rect width="64" height="64" fill="#D9D9D9"/>
</mask>
<g mask="url(#mask0_533_1717)">
<path d="M15.6667 37H37V31.6667H15.6667V37ZM15.6667 29H47.6667V23.6667H15.6667V29ZM15.6667 21H47.6667V15.6667H15.6667V21ZM5 58.3333V10.3333C5 8.86667 5.52222 7.61111 6.56667 6.56667C7.61111 5.52222 8.86667 5 10.3333 5H53C54.4667 5 55.7222 5.52222 56.7667 6.56667C57.8111 7.61111 58.3333 8.86667 58.3333 10.3333V42.3333C58.3333 43.8 57.8111 45.0556 56.7667 46.1C55.7222 47.1444 54.4667 47.6667 53 47.6667H15.6667L5 58.3333ZM13.4 42.3333H53V10.3333H10.3333V45.3333L13.4 42.3333Z" fill="white"/>
<path d="M15.6667 37H37V31.6667H15.6667V37ZM15.6667 29H47.6667V23.6667H15.6667V29ZM15.6667 21H47.6667V15.6667H15.6667V21ZM5 58.3333V10.3333C5 8.86667 5.52222 7.61111 6.56667 6.56667C7.61111 5.52222 8.86667 5 10.3333 5H53C54.4667 5 55.7222 5.52222 56.7667 6.56667C57.8111 7.61111 58.3333 8.86667 58.3333 10.3333V42.3333C58.3333 43.8 57.8111 45.0556 56.7667 46.1C55.7222 47.1444 54.4667 47.6667 53 47.6667H15.6667L5 58.3333ZM13.4 42.3333H53V10.3333H10.3333V45.3333L13.4 42.3333Z" fill="white"/>
<path d="M15.6667 37H37V31.6667H15.6667V37ZM15.6667 29H47.6667V23.6667H15.6667V29ZM15.6667 21H47.6667V15.6667H15.6667V21ZM5 58.3333V10.3333C5 8.86667 5.52222 7.61111 6.56667 6.56667C7.61111 5.52222 8.86667 5 10.3333 5H53C54.4667 5 55.7222 5.52222 56.7667 6.56667C57.8111 7.61111 58.3333 8.86667 58.3333 10.3333V42.3333C58.3333 43.8 57.8111 45.0556 56.7667 46.1C55.7222 47.1444 54.4667 47.6667 53 47.6667H15.6667L5 58.3333ZM13.4 42.3333H53V10.3333H10.3333V45.3333L13.4 42.3333Z" fill="white"/>
</g>
</svg>
