<svg width="21" height="18" viewBox="0 0 21 18" fill="currentColor" xmlns="http://www.w3.org/2000/svg">
<path d="M9.16797 18V16H17.168V8.9C17.168 6.95 16.4888 5.29583 15.1305 3.9375C13.7721 2.57917 12.118 1.9 10.168 1.9C8.21797 1.9 6.5638 2.57917 5.20547 3.9375C3.84714 5.29583 3.16797 6.95 3.16797 8.9V15H2.16797C1.61797 15 1.14714 14.8042 0.755469 14.4125C0.363802 14.0208 0.167969 13.55 0.167969 13V11C0.167969 10.65 0.255469 10.3208 0.430469 10.0125C0.605469 9.70417 0.851302 9.45833 1.16797 9.275L1.24297 7.95C1.3763 6.81667 1.70547 5.76667 2.23047 4.8C2.75547 3.83333 3.4138 2.99167 4.20547 2.275C4.99714 1.55833 5.90547 1 6.93047 0.6C7.95547 0.2 9.03464 0 10.168 0C11.3013 0 12.3763 0.2 13.393 0.6C14.4096 1 15.318 1.55417 16.118 2.2625C16.918 2.97083 17.5763 3.80833 18.093 4.775C18.6096 5.74167 18.943 6.79167 19.093 7.925L19.168 9.225C19.4846 9.375 19.7305 9.6 19.9055 9.9C20.0805 10.2 20.168 10.5167 20.168 10.85V13.15C20.168 13.4833 20.0805 13.8 19.9055 14.1C19.7305 14.4 19.4846 14.625 19.168 14.775V16C19.168 16.55 18.9721 17.0208 18.5805 17.4125C18.1888 17.8042 17.718 18 17.168 18H9.16797ZM7.16797 11C6.88464 11 6.64714 10.9042 6.45547 10.7125C6.2638 10.5208 6.16797 10.2833 6.16797 10C6.16797 9.71667 6.2638 9.47917 6.45547 9.2875C6.64714 9.09583 6.88464 9 7.16797 9C7.4513 9 7.6888 9.09583 7.88047 9.2875C8.07214 9.47917 8.16797 9.71667 8.16797 10C8.16797 10.2833 8.07214 10.5208 7.88047 10.7125C7.6888 10.9042 7.4513 11 7.16797 11ZM13.168 11C12.8846 11 12.6471 10.9042 12.4555 10.7125C12.2638 10.5208 12.168 10.2833 12.168 10C12.168 9.71667 12.2638 9.47917 12.4555 9.2875C12.6471 9.09583 12.8846 9 13.168 9C13.4513 9 13.6888 9.09583 13.8805 9.2875C14.0721 9.47917 14.168 9.71667 14.168 10C14.168 10.2833 14.0721 10.5208 13.8805 10.7125C13.6888 10.9042 13.4513 11 13.168 11ZM4.19297 9.45C4.0763 7.68333 4.60964 6.16667 5.79297 4.9C6.9763 3.63333 8.4513 3 10.218 3C11.7013 3 13.0055 3.47083 14.1305 4.4125C15.2555 5.35417 15.9346 6.55833 16.168 8.025C14.6513 8.00833 13.2555 7.6 11.9805 6.8C10.7055 6 9.7263 4.91667 9.04297 3.55C8.7763 4.88333 8.2138 6.07083 7.35547 7.1125C6.49714 8.15417 5.44297 8.93333 4.19297 9.45Z" fill="currentColor"/>
</svg>
