<svg width="21" height="20" viewBox="0 0 21 20" fill="currentColor" xmlns="http://www.w3.org/2000/svg">
<path d="M8.08125 20L7.68125 16.8C7.46458 16.7167 7.26042 16.6167 7.06875 16.5C6.87708 16.3833 6.68958 16.2583 6.50625 16.125L3.53125 17.375L0.78125 12.625L3.35625 10.675C3.33958 10.5583 3.33125 10.4458 3.33125 10.3375V9.6625C3.33125 9.55417 3.33958 9.44167 3.35625 9.325L0.78125 7.375L3.53125 2.625L6.50625 3.875C6.68958 3.74167 6.88125 3.61667 7.08125 3.5C7.28125 3.38333 7.48125 3.28333 7.68125 3.2L8.08125 0H13.5813L13.9812 3.2C14.1979 3.28333 14.4021 3.38333 14.5938 3.5C14.7854 3.61667 14.9729 3.74167 15.1562 3.875L18.1313 2.625L20.8813 7.375L18.3062 9.325C18.3229 9.44167 18.3313 9.55417 18.3313 9.6625V10.3375C18.3313 10.4458 18.3146 10.5583 18.2812 10.675L20.8563 12.625L18.1063 17.375L15.1562 16.125C14.9729 16.2583 14.7812 16.3833 14.5813 16.5C14.3813 16.6167 14.1813 16.7167 13.9812 16.8L13.5813 20H8.08125ZM9.83125 18H11.8063L12.1562 15.35C12.6729 15.2167 13.1521 15.0208 13.5938 14.7625C14.0354 14.5042 14.4396 14.1917 14.8063 13.825L17.2812 14.85L18.2563 13.15L16.1062 11.525C16.1896 11.2917 16.2479 11.0458 16.2812 10.7875C16.3146 10.5292 16.3313 10.2667 16.3313 10C16.3313 9.73333 16.3146 9.47083 16.2812 9.2125C16.2479 8.95417 16.1896 8.70833 16.1062 8.475L18.2563 6.85L17.2812 5.15L14.8063 6.2C14.4396 5.81667 14.0354 5.49583 13.5938 5.2375C13.1521 4.97917 12.6729 4.78333 12.1562 4.65L11.8313 2H9.85625L9.50625 4.65C8.98958 4.78333 8.51042 4.97917 8.06875 5.2375C7.62708 5.49583 7.22292 5.80833 6.85625 6.175L4.38125 5.15L3.40625 6.85L5.55625 8.45C5.47292 8.7 5.41458 8.95 5.38125 9.2C5.34792 9.45 5.33125 9.71667 5.33125 10C5.33125 10.2667 5.34792 10.525 5.38125 10.775C5.41458 11.025 5.47292 11.275 5.55625 11.525L3.40625 13.15L4.38125 14.85L6.85625 13.8C7.22292 14.1833 7.62708 14.5042 8.06875 14.7625C8.51042 15.0208 8.98958 15.2167 9.50625 15.35L9.83125 18ZM10.8813 13.5C11.8479 13.5 12.6729 13.1583 13.3562 12.475C14.0396 11.7917 14.3813 10.9667 14.3813 10C14.3813 9.03333 14.0396 8.20833 13.3562 7.525C12.6729 6.84167 11.8479 6.5 10.8813 6.5C9.89792 6.5 9.06875 6.84167 8.39375 7.525C7.71875 8.20833 7.38125 9.03333 7.38125 10C7.38125 10.9667 7.71875 11.7917 8.39375 12.475C9.06875 13.1583 9.89792 13.5 10.8813 13.5Z" fill="currentColor"/>
</svg>
