<svg width="25" height="25" viewBox="0 0 25 25" fill="none" xmlns="http://www.w3.org/2000/svg">
<mask id="mask0_675_262" style="mask-type:alpha" maskUnits="userSpaceOnUse" x="0" y="0" width="25" height="25">
<rect x="0.5" y="0.5" width="24" height="24" fill="#D9D9D9"/>
</mask>
<g mask="url(#mask0_675_262)">
<path d="M2.5 10.4992C2.5 8.83255 2.87083 7.30339 3.6125 5.91172C4.35417 4.52005 5.35 3.36589 6.6 2.44922L7.775 4.04922C6.775 4.78255 5.97917 5.70755 5.3875 6.82422C4.79583 7.94089 4.5 9.16589 4.5 10.4992H2.5ZM20.5 10.4992C20.5 9.16589 20.2042 7.94089 19.6125 6.82422C19.0208 5.70755 18.225 4.78255 17.225 4.04922L18.4 2.44922C19.65 3.36589 20.6458 4.52005 21.3875 5.91172C22.1292 7.30339 22.5 8.83255 22.5 10.4992H20.5ZM4.5 19.4992V17.4992H6.5V10.4992C6.5 9.11589 6.91667 7.88672 7.75 6.81172C8.58333 5.73672 9.66667 5.03255 11 4.69922V3.99922C11 3.58255 11.1458 3.22839 11.4375 2.93672C11.7292 2.64505 12.0833 2.49922 12.5 2.49922C12.9167 2.49922 13.2708 2.64505 13.5625 2.93672C13.8542 3.22839 14 3.58255 14 3.99922V4.69922C15.3333 5.03255 16.4167 5.73672 17.25 6.81172C18.0833 7.88672 18.5 9.11589 18.5 10.4992V17.4992H20.5V19.4992H4.5ZM12.5 22.4992C11.95 22.4992 11.4792 22.3034 11.0875 21.9117C10.6958 21.5201 10.5 21.0492 10.5 20.4992H14.5C14.5 21.0492 14.3042 21.5201 13.9125 21.9117C13.5208 22.3034 13.05 22.4992 12.5 22.4992ZM8.5 17.4992H16.5V10.4992C16.5 9.39922 16.1083 8.45755 15.325 7.67422C14.5417 6.89089 13.6 6.49922 12.5 6.49922C11.4 6.49922 10.4583 6.89089 9.675 7.67422C8.89167 8.45755 8.5 9.39922 8.5 10.4992V17.4992Z" fill="#5F6368"/>
</g>
</svg>
