<svg width="25" height="25" viewBox="0 0 25 25" fill="none" xmlns="http://www.w3.org/2000/svg">
<path d="M6.5 14.5H14.5V12.5H6.5V14.5ZM6.5 11.5H18.5V9.5H6.5V11.5ZM6.5 8.5H18.5V6.5H6.5V8.5ZM2.5 22.5V4.5C2.5 3.95 2.69583 3.47917 3.0875 3.0875C3.47917 2.69583 3.95 2.5 4.5 2.5H20.5C21.05 2.5 21.5208 2.69583 21.9125 3.0875C22.3042 3.47917 22.5 3.95 22.5 4.5V16.5C22.5 17.05 22.3042 17.5208 21.9125 17.9125C21.5208 18.3042 21.05 18.5 20.5 18.5H6.5L2.5 22.5ZM5.65 16.5H20.5V4.5H4.5V17.625L5.65 16.5Z" fill="#5F6368"/>
</svg>
