<svg width="39" height="41" viewBox="0 0 39 41" fill="none" xmlns="http://www.w3.org/2000/svg">
<path d="M8.5 24.5H15.85C16.2167 23.7333 16.6417 23.0167 17.125 22.35C17.6083 21.6833 18.15 21.0667 18.75 20.5H8.5V24.5ZM8.5 32.5H14.65C14.55 31.8333 14.5 31.1667 14.5 30.5C14.5 29.8333 14.55 29.1667 14.65 28.5H8.5V32.5ZM4.5 40.5C3.4 40.5 2.45833 40.1083 1.675 39.325C0.891667 38.5417 0.5 37.6 0.5 36.5V4.5C0.5 3.4 0.891667 2.45833 1.675 1.675C2.45833 0.891667 3.4 0.5 4.5 0.5H20.5L32.5 12.5V17.1C31.8667 16.9 31.2167 16.75 30.55 16.65C29.8833 16.55 29.2 16.5 28.5 16.5V14.5H18.5V4.5H4.5V36.5H15.85C16.2167 37.2667 16.6417 37.9833 17.125 38.65C17.6083 39.3167 18.15 39.9333 18.75 40.5H4.5ZM28.5 20.5C31.2667 20.5 33.625 21.475 35.575 23.425C37.525 25.375 38.5 27.7333 38.5 30.5C38.5 33.2667 37.525 35.625 35.575 37.575C33.625 39.525 31.2667 40.5 28.5 40.5C25.7333 40.5 23.375 39.525 21.425 37.575C19.475 35.625 18.5 33.2667 18.5 30.5C18.5 27.7333 19.475 25.375 21.425 23.425C23.375 21.475 25.7333 20.5 28.5 20.5ZM28.5 36.5C28.8667 36.5 29.175 36.375 29.425 36.125C29.675 35.875 29.8 35.5667 29.8 35.2C29.8 34.8333 29.675 34.525 29.425 34.275C29.175 34.025 28.8667 33.9 28.5 33.9C28.1333 33.9 27.825 34.025 27.575 34.275C27.325 34.525 27.2 34.8333 27.2 35.2C27.2 35.5667 27.325 35.875 27.575 36.125C27.825 36.375 28.1333 36.5 28.5 36.5ZM27.6 32.7H29.4V32.2C29.4 31.8333 29.5 31.5083 29.7 31.225C29.9 30.9417 30.1333 30.6667 30.4 30.4C30.8667 30 31.2333 29.6167 31.5 29.25C31.7667 28.8833 31.9 28.3667 31.9 27.7C31.9 26.7333 31.5833 25.9583 30.95 25.375C30.3167 24.7917 29.5 24.5 28.5 24.5C27.7333 24.5 27.0417 24.725 26.425 25.175C25.8083 25.625 25.3667 26.2333 25.1 27L26.7 27.7C26.8 27.3 27.0083 26.95 27.325 26.65C27.6417 26.35 28.0333 26.2 28.5 26.2C29 26.2 29.3917 26.325 29.675 26.575C29.9583 26.825 30.1 27.2 30.1 27.7C30.1 28.0667 30 28.375 29.8 28.625C29.6 28.875 29.3667 29.1333 29.1 29.4C28.9 29.6 28.6917 29.8 28.475 30C28.2583 30.2 28.0667 30.4333 27.9 30.7C27.8 30.9 27.725 31.1 27.675 31.3C27.625 31.5 27.6 31.7333 27.6 32V32.7Z" fill="#808080"/>
</svg>
