<svg width="16" height="16" viewBox="0 0 16 16" fill="none" xmlns="http://www.w3.org/2000/svg">
<path d="M6 2.67188V6H2.67188V2.67188H6ZM2.67188 1.32812C2.29688 1.32812 1.97917 1.45833 1.71875 1.71875C1.45833 1.97917 1.32812 2.29688 1.32812 2.67188V6C1.32812 6.36458 1.45833 6.67708 1.71875 6.9375C1.97917 7.19792 2.29688 7.32812 2.67188 7.32812H6C6.36458 7.32812 6.67708 7.19792 6.9375 6.9375C7.19792 6.67708 7.32812 6.36458 7.32812 6V2.67188C7.32812 2.29688 7.19792 1.97917 6.9375 1.71875C6.67708 1.45833 6.36458 1.32812 6 1.32812H2.67188ZM13.3281 2.67188V6H10V2.67188H13.3281ZM10 1.32812C9.63542 1.32812 9.32292 1.45833 9.0625 1.71875C8.80208 1.97917 8.67188 2.29688 8.67188 2.67188V6C8.67188 6.36458 8.80208 6.67708 9.0625 6.9375C9.32292 7.19792 9.63542 7.32812 10 7.32812H13.3281C13.7031 7.32812 14.0208 7.19792 14.2812 6.9375C14.5417 6.67708 14.6719 6.36458 14.6719 6V2.67188C14.6719 2.29688 14.5417 1.97917 14.2812 1.71875C14.0208 1.45833 13.7031 1.32812 13.3281 1.32812H10ZM6 10V13.3281H2.67188V10H6ZM2.67188 8.67188C2.29688 8.67188 1.97917 8.80208 1.71875 9.0625C1.45833 9.32292 1.32812 9.63542 1.32812 10V13.3281C1.32812 13.7031 1.45833 14.0208 1.71875 14.2812C1.97917 14.5417 2.29688 14.6719 2.67188 14.6719H6C6.36458 14.6719 6.67708 14.5417 6.9375 14.2812C7.19792 14.0208 7.32812 13.7031 7.32812 13.3281V10C7.32812 9.63542 7.19792 9.32292 6.9375 9.0625C6.67708 8.80208 6.36458 8.67188 6 8.67188H2.67188ZM13.3281 10V13.3281H10V10H13.3281ZM10 8.67188C9.63542 8.67188 9.32292 8.80208 9.0625 9.0625C8.80208 9.32292 8.67188 9.63542 8.67188 10V13.3281C8.67188 13.7031 8.80208 14.0208 9.0625 14.2812C9.32292 14.5417 9.63542 14.6719 10 14.6719H13.3281C13.7031 14.6719 14.0208 14.5417 14.2812 14.2812C14.5417 14.0208 14.6719 13.7031 14.6719 13.3281V10C14.6719 9.63542 14.5417 9.32292 14.2812 9.0625C14.0208 8.80208 13.7031 8.67188 13.3281 8.67188H10Z" fill="white"/>
</svg>
