<svg width="18" height="15" viewBox="0 0 18 15" fill="none" xmlns="http://www.w3.org/2000/svg">
<path d="M8.16797 15V13.3333H14.8346V7.41667C14.8346 5.79167 14.2687 4.41319 13.1367 3.28125C12.0048 2.14931 10.6263 1.58333 9.0013 1.58333C7.3763 1.58333 5.99783 2.14931 4.86589 3.28125C3.73394 4.41319 3.16797 5.79167 3.16797 7.41667V12.5H2.33464C1.8763 12.5 1.48394 12.3368 1.15755 12.0104C0.831163 11.684 0.667969 11.2917 0.667969 10.8333V9.16667C0.667969 8.875 0.740885 8.60069 0.886719 8.34375C1.03255 8.08681 1.23741 7.88194 1.5013 7.72917L1.5638 6.625C1.67491 5.68056 1.94922 4.80556 2.38672 4C2.82422 3.19444 3.37283 2.49306 4.03255 1.89583C4.69227 1.29861 5.44922 0.833333 6.30339 0.5C7.15755 0.166667 8.05686 0 9.0013 0C9.94575 0 10.8416 0.166667 11.6888 0.5C12.536 0.833333 13.293 1.29514 13.9596 1.88542C14.6263 2.47569 15.1749 3.17361 15.6055 3.97917C16.036 4.78472 16.3138 5.65972 16.4388 6.60417L16.5013 7.6875C16.7652 7.8125 16.9701 8 17.1159 8.25C17.2617 8.5 17.3346 8.76389 17.3346 9.04167V10.9583C17.3346 11.2361 17.2617 11.5 17.1159 11.75C16.9701 12 16.7652 12.1875 16.5013 12.3125V13.3333C16.5013 13.7917 16.3381 14.184 16.0117 14.5104C15.6853 14.8368 15.293 15 14.8346 15H8.16797ZM6.5013 9.16667C6.26519 9.16667 6.06727 9.08681 5.90755 8.92708C5.74783 8.76736 5.66797 8.56944 5.66797 8.33333C5.66797 8.09722 5.74783 7.89931 5.90755 7.73958C6.06727 7.57986 6.26519 7.5 6.5013 7.5C6.73741 7.5 6.93533 7.57986 7.09505 7.73958C7.25477 7.89931 7.33464 8.09722 7.33464 8.33333C7.33464 8.56944 7.25477 8.76736 7.09505 8.92708C6.93533 9.08681 6.73741 9.16667 6.5013 9.16667ZM11.5013 9.16667C11.2652 9.16667 11.0673 9.08681 10.9076 8.92708C10.7478 8.76736 10.668 8.56944 10.668 8.33333C10.668 8.09722 10.7478 7.89931 10.9076 7.73958C11.0673 7.57986 11.2652 7.5 11.5013 7.5C11.7374 7.5 11.9353 7.57986 12.0951 7.73958C12.2548 7.89931 12.3346 8.09722 12.3346 8.33333C12.3346 8.56944 12.2548 8.76736 12.0951 8.92708C11.9353 9.08681 11.7374 9.16667 11.5013 9.16667ZM4.02214 7.875C3.92491 6.40278 4.36936 5.13889 5.35547 4.08333C6.34158 3.02778 7.57075 2.5 9.04297 2.5C10.2791 2.5 11.3659 2.89236 12.3034 3.67708C13.2409 4.46181 13.8069 5.46528 14.0013 6.6875C12.7374 6.67361 11.5742 6.33333 10.5117 5.66667C9.44922 5 8.63325 4.09722 8.0638 2.95833C7.84158 4.06944 7.37283 5.05903 6.65755 5.92708C5.94227 6.79514 5.0638 7.44444 4.02214 7.875Z" fill="white"/>
</svg>
