<svg width="16" height="16" viewBox="0 0 16 16" fill="none" xmlns="http://www.w3.org/2000/svg">
<mask id="mask0_658_587" style="mask-type:alpha" maskUnits="userSpaceOnUse" x="0" y="0" width="16" height="16">
<rect width="16" height="16" fill="#D9D9D9"/>
</mask>
<g mask="url(#mask0_658_587)">
<path d="M11.332 14.016C11.2431 14.016 11.1543 14.0049 11.0654 13.9827C10.9765 13.9605 10.8931 13.9216 10.8154 13.866L8.81536 12.6993C8.65981 12.6105 8.54036 12.491 8.45703 12.341C8.3737 12.191 8.33203 12.0271 8.33203 11.8493V9.49935C8.33203 9.32157 8.3737 9.15768 8.45703 9.00768C8.54036 8.85768 8.65981 8.73824 8.81536 8.64935L10.8154 7.48268C10.8931 7.42713 10.9765 7.38824 11.0654 7.36601C11.1543 7.34379 11.2431 7.33268 11.332 7.33268C11.4209 7.33268 11.507 7.34657 11.5904 7.37435C11.6737 7.40213 11.7543 7.43824 11.832 7.48268L13.832 8.64935C13.9876 8.73824 14.1098 8.85768 14.1987 9.00768C14.2876 9.15768 14.332 9.32157 14.332 9.49935V11.8493C14.332 12.0271 14.2876 12.191 14.1987 12.341C14.1098 12.491 13.9876 12.6105 13.832 12.6993L11.832 13.866C11.7543 13.9105 11.6737 13.9466 11.5904 13.9743C11.507 14.0021 11.4209 14.016 11.332 14.016ZM6.66536 7.99935C5.93203 7.99935 5.30425 7.73824 4.78203 7.21602C4.25981 6.69379 3.9987 6.06602 3.9987 5.33268C3.9987 4.59935 4.25981 3.97157 4.78203 3.44935C5.30425 2.92713 5.93203 2.66602 6.66536 2.66602C7.3987 2.66602 8.02648 2.92713 8.5487 3.44935C9.07092 3.97157 9.33203 4.59935 9.33203 5.33268C9.33203 6.06602 9.07092 6.69379 8.5487 7.21602C8.02648 7.73824 7.3987 7.99935 6.66536 7.99935ZM1.33203 13.3327V11.466C1.33203 11.0993 1.42648 10.7549 1.61536 10.4327C1.80425 10.1105 2.06536 9.86601 2.3987 9.69935C2.96536 9.41046 3.60425 9.16602 4.31536 8.96602C5.02648 8.76602 5.80981 8.66601 6.66536 8.66601H6.8987C6.96536 8.66601 7.03203 8.67713 7.0987 8.69935C7.00981 8.89935 6.93481 9.10768 6.8737 9.32435C6.81259 9.54101 6.76537 9.76601 6.73203 9.99935H6.66536C5.87648 9.99935 5.16814 10.0993 4.54036 10.2993C3.91259 10.4993 3.3987 10.6993 2.9987 10.8993C2.8987 10.9549 2.81814 11.0327 2.75703 11.1327C2.69592 11.2327 2.66536 11.3438 2.66536 11.466V11.9993H6.86537C6.93203 12.2327 7.02092 12.4632 7.13203 12.691C7.24314 12.9188 7.36536 13.1327 7.4987 13.3327H1.33203ZM6.66536 6.66602C7.03203 6.66602 7.34592 6.53546 7.60703 6.27435C7.86814 6.01324 7.9987 5.69935 7.9987 5.33268C7.9987 4.96602 7.86814 4.65213 7.60703 4.39102C7.34592 4.1299 7.03203 3.99935 6.66536 3.99935C6.2987 3.99935 5.98481 4.1299 5.7237 4.39102C5.46259 4.65213 5.33203 4.96602 5.33203 5.33268C5.33203 5.69935 5.46259 6.01324 5.7237 6.27435C5.98481 6.53546 6.2987 6.66602 6.66536 6.66602ZM9.76537 9.23268L11.332 10.1493L12.8987 9.23268L11.332 8.33268L9.76537 9.23268ZM11.832 12.6993L13.332 11.8327V9.99935L11.832 10.8827V12.6993ZM9.33203 11.8327L10.832 12.716V10.8993L9.33203 10.016V11.8327Z" fill="white"/>
</g>
</svg>
