<svg width="16" height="16" viewBox="0 0 16 16" fill="none" xmlns="http://www.w3.org/2000/svg">
<mask id="mask0_658_593" style="mask-type:alpha" maskUnits="userSpaceOnUse" x="0" y="0" width="16" height="16">
<rect width="16" height="16" fill="#D9D9D9"/>
</mask>
<g mask="url(#mask0_658_593)">
<path d="M11.3333 14.6673V12.6673H9.33333V11.334H11.3333V9.33398H12.6667V11.334H14.6667V12.6673H12.6667V14.6673H11.3333ZM3.33333 13.334C2.96667 13.334 2.65278 13.2034 2.39167 12.9423C2.13056 12.6812 2 12.3673 2 12.0007V4.00065C2 3.63398 2.13056 3.3201 2.39167 3.05898C2.65278 2.79787 2.96667 2.66732 3.33333 2.66732H4V1.33398H5.33333V2.66732H9.33333V1.33398H10.6667V2.66732H11.3333C11.7 2.66732 12.0139 2.79787 12.275 3.05898C12.5361 3.3201 12.6667 3.63398 12.6667 4.00065V8.06732C12.4444 8.03398 12.2222 8.01732 12 8.01732C11.7778 8.01732 11.5556 8.03398 11.3333 8.06732V6.66732H3.33333V12.0007H8C8 12.2229 8.01667 12.4451 8.05 12.6673C8.08333 12.8895 8.14444 13.1118 8.23333 13.334H3.33333ZM3.33333 5.33398H11.3333V4.00065H3.33333V5.33398Z" fill="white"/>
</g>
</svg>
